<svg width="507" height="121" xmlns="http://www.w3.org/2000/svg">
 <!-- Created with SVG-edit - http://svg-edit.googlecode.com/ -->
 <g>
  <title>Layer 1</title>
  <path id="path4" fill="#009ee0" fill-rule="evenodd" d="m364.173218,121.074066c0.618103,-1.03009 1.236084,-2.060211 1.957153,-2.987305c12.979126,-15.451202 26.490601,-31.429291 39.572754,-46.880585c-0.001038,-0.005005 -0.001038,-0.003998 -0.007019,-0.010498c-7.004578,-13.700104 -14.328308,-28.202026 -21.229919,-41.799103c11.949005,-2.678314 25.205017,-1.88501 32.035583,8.858704c0.779907,1.226807 1.418243,2.407288 1.974243,3.572784c0.555969,1.165192 1.030518,2.315704 1.480194,3.483307c0.450165,1.16748 0.87677,2.352478 1.339203,3.586975c0.462311,1.234528 0.960266,2.518005 1.552368,3.882721c0.131042,0.257904 8.447144,-8.183899 13.436523,-12.856598c5.243317,-4.909912 10.976074,-11.325989 18.064606,-16.247681c14.105713,-9.794403 30.389496,-17.187439 36.524994,-19.6203c4.510498,-1.788513 11.227905,-4.738403 16.275269,-3.914307c-2.444214,3.277985 -40.105072,40.894287 -40.688293,40.894287c-11.639954,11.639984 -31.857574,30.841705 -34.713806,35.125885l-1.4422,2.163208c7.725739,-4.223389 7.725739,-4.223389 8.755859,-4.326385c5.974365,12.979095 11.948853,26.061096 18.026367,39.143188c-11.742889,0.515106 -11.742889,0.515106 -28.739288,0.7211c-5.356506,-13.391113 -5.356506,-13.391113 -9.888794,-26.576202c-0.309113,0 -0.618134,0 -0.824127,0c-13.906067,17.820496 -30.490479,31.211517 -53.461395,33.786804l-0.000275,0z"/>
  <path id="path6" fill="#009ee0" fill-rule="evenodd" d="m46.907295,119.013855c-15.088699,-1.601898 -38.048595,-12.266876 -44.190598,-32.344696c-6.141998,-20.077698 -1.5877,-38.310181 10.815899,-53.770294c2.969402,-3.701508 7.699299,-7.917114 8.3437,-8.343689c4.004303,-2.652313 14.039101,-9.163727 24.722,-11.227936c10.6828,-2.06427 24.207001,-2.575287 36.362,-0.309082c10.815804,3.914307 5.25341,15.2453 1.442101,22.86792c-1.133102,0.102966 -0.971298,-0.753906 -9.6828,-1.957214c-10.012497,-1.382904 -22.184502,0.569794 -27.503296,2.781281c-18.649406,7.754425 -24.822998,41.065002 -9.6828,54.182404c9.630898,8.344116 21.805397,8.042419 33.374794,5.253418c11.569405,-2.78891 10.712807,-3.502319 12.052002,-3.605316c-1.957199,7.725708 -3.914398,18.74762 -10.506897,24.001007c-8.683502,2.358612 -10.457405,4.074097 -25.546104,2.472198z"/>
  <path id="path8" fill="#009ee0" fill-rule="evenodd" d="m171.238495,116.953674c-0.102997,-0.824005 -0.206009,-1.648102 -0.206009,-2.472198c2.575226,-21.116699 5.775711,-42.060303 7.828598,-63.144104c0.628616,-6.458679 -2.472183,-9.167786 -6.489487,-13.49408c-0.103012,-0.412109 -0.2061,-0.72113 -0.2061,-1.030121c11.743011,-6.695587 35.228912,-16.687378 30.593506,7.622589c0.206085,0 0.412109,0 0.7211,0c10.40387,-16.790375 39.967285,-22.661865 47.383926,-0.30899c0.205994,0 0.411972,0 0.720932,0c0.72113,-3.193298 4.807434,-6.463989 7.31366,-8.343689c7.817688,-5.863007 15.170685,-7.915009 24.618988,-6.283508c13.344452,2.304718 16.759583,12.225098 16.893402,25.031006c0.174805,16.697083 -3.605316,33.580811 -5.768433,50.062103c-3.914368,11.949005 -15.554291,11.639984 -26.576172,11.330902c2.163208,-19.056519 8.187073,-39.065704 5.974457,-58.09671c-1.429962,-12.299377 -14.53598,-7.868805 -18.541473,0c-4.005615,7.868805 -3.106079,5.319092 -4.53241,11.330902c-1.42627,6.01181 -3.043579,23.707001 -5.459457,35.434906c-1.815262,8.813293 -7.176514,11.067291 -15.966324,11.742981c-3.28772,0.252625 -6.592529,-0.102997 -9.888824,-0.102997c2.060211,-17.305389 4.218109,-34.599091 6.283554,-51.813293c0.738892,-6.15979 1.789291,-10.064392 -2.163132,-12.052002c-12.883392,-6.479279 -20.019806,11.372711 -22.249908,21.631805c-2.413788,11.104187 -3.502197,22.455811 -5.150391,33.683807c-4.944397,10.300781 -15.039185,9.064697 -25.134003,9.270691z"/>
  <path id="path10" fill="#009ee0" fill-rule="evenodd" d="m338.421082,116.232666c-11.011688,-1.181793 -20.05011,-3.729797 -26.679077,-13.082092c-12.476624,-17.602295 -8.399292,-39.730804 2.884216,-57.169708c10.434692,-16.146698 37.387573,-22.781097 53.976379,-13.082001c9.162476,5.356812 13.815308,14.610504 12.876099,25.339996c-1.005005,11.472107 -7.097137,16.689819 -17.614502,20.395691c-11.215729,3.952026 -22.043823,4.1203 -33.992798,4.326324c2.163177,17.717499 27.372314,12.823395 38.731201,9.373779c2.562561,-0.778198 5.047363,-1.957092 7.622589,-2.884186c-4.738373,7.93161 -9.68277,18.026398 -16.893402,24.207001c-2.575195,0.617981 -4.962585,1.759583 -7.519592,2.060089c-4.502289,0.529297 -8.982788,0.988312 -13.391113,0.515106zm-7.519592,-52.225311c1.751221,-11.639984 14.627228,-21.940796 25.443115,-13.49411c6.077515,14.21521 -17.820496,13.082123 -25.443115,13.49411z"/>
  <path id="path12" fill="#009ee0" fill-rule="evenodd" d="m166.592499,86.725952c-8.59671,23.618591 -33.360901,37.483704 -55.12571,30.866516c-21.763992,-6.619812 -32.506004,-31.280121 -23.909698,-54.899109c8.598801,-23.620514 33.361801,-37.485321 55.1269,-30.867615c21.763992,6.618927 32.50531,31.280121 23.908508,54.900208zm-34.898697,-36.728973c8.345291,1.331787 13.040298,13.258881 10.451279,26.549377c-2.588593,13.290985 -11.506104,23.044312 -19.852287,21.712097c-8.345306,-1.331787 -13.040298,-13.258911 -10.451309,-26.549408c2.588608,-13.290894 11.50621,-23.044281 19.852318,-21.712067z"/>
 </g>
</svg>